<?xml version="1.0" standalone="no"?>
<!DOCTYPE svg PUBLIC "-//W3C//DTD SVG 20010904//EN"
 "http://www.w3.org/TR/2001/REC-SVG-20010904/DTD/svg10.dtd">
<svg version="1.0" xmlns="http://www.w3.org/2000/svg"
 width="512.000000pt" height="512.000000pt" viewBox="0 0 512.000000 512.000000"
 preserveAspectRatio="xMidYMid meet">
<metadata>
Created by potrace 1.14, written by Peter Selinger 2001-2017
</metadata>
<g transform="translate(0.000000,512.000000) scale(0.100000,-0.100000)"
fill="#000000" stroke="none">
<path d="M0 2560 l0 -2560 2560 0 2560 0 0 2560 0 2560 -2560 0 -2560 0 0
-2560z m2834 2025 c413 -54 826 -254 1133 -549 179 -172 312 -351 418 -565
154 -308 215 -573 215 -926 -1 -360 -81 -673 -253 -980 -100 -179 -176 -281
-317 -429 -322 -337 -774 -561 -1244 -617 -160 -19 -464 -7 -616 24 -271 56
-508 153 -735 301 -114 75 -194 141 -318 264 -581 574 -763 1454 -457 2208
217 533 628 938 1163 1148 141 56 313 101 451 120 139 19 419 19 560 1z"/>
<path d="M2365 4153 c-16 -2 -75 -13 -130 -24 -364 -76 -684 -271 -925 -564
-344 -420 -448 -991 -274 -1515 184 -554 648 -960 1233 -1077 65 -13 138 -18
296 -18 186 0 222 3 315 24 510 115 913 434 1130 893 90 191 134 358 149 564
35 469 -140 931 -480 1266 -242 239 -551 393 -888 443 -87 14 -346 18 -426 8z
m476 -173 c188 -39 365 -111 525 -215 207 -136 524 -515 430 -515 -7 0 -33 30
-57 67 -243 374 -646 610 -1091 640 -100 6 -115 12 -104 40 6 14 20 15 104 9
53 -4 140 -15 193 -26z m-44 -169 c259 -50 466 -162 658 -355 106 -106 220
-256 212 -280 -10 -31 -38 -13 -85 56 -147 215 -347 378 -575 467 -111 43
-276 81 -355 81 -77 0 -112 10 -112 31 0 17 8 19 80 19 43 0 123 -9 177 -19z
m-22 -178 c147 -28 264 -78 402 -170 170 -113 395 -394 316 -393 -11 0 -37 30
-67 76 -97 150 -253 282 -429 364 -109 51 -208 78 -344 92 -95 10 -113 15
-113 29 0 10 6 20 13 23 18 7 130 -3 222 -21z m4 -184 c100 -23 230 -82 314
-143 117 -83 278 -273 264 -311 -11 -26 -31 -17 -59 28 -81 128 -205 239 -343
307 -112 56 -213 85 -333 95 -68 6 -82 11 -82 25 0 9 3 20 7 24 11 11 135 -2
232 -25z m6 -183 c145 -46 301 -163 387 -289 32 -47 37 -61 28 -73 -19 -22
-26 -18 -65 40 -46 69 -159 176 -227 216 -77 43 -200 82 -287 89 -71 6 -76 8
-79 30 l-4 24 86 -6 c47 -4 119 -18 161 -31z m-84 -232 c194 -57 332 -227 355
-439 24 -227 -139 -462 -361 -520 -232 -60 -472 43 -576 247 -56 111 -73 241
-44 352 45 172 159 297 323 353 83 28 220 31 303 7z m-731 -850 c62 -100 170
-198 282 -255 73 -37 189 -69 253 -69 59 0 81 -11 71 -35 -6 -16 -16 -17 -84
-12 -125 10 -279 67 -372 139 -97 74 -218 223 -206 254 9 24 34 15 56 -22z
m-135 -116 c84 -131 243 -261 395 -322 85 -35 228 -66 302 -66 26 0 41 -5 45
-16 10 -26 -17 -35 -82 -29 -169 17 -305 62 -427 141 -141 91 -322 293 -304
340 10 27 31 13 71 -48z m-145 -101 c110 -161 239 -272 415 -357 125 -60 218
-87 363 -102 96 -11 112 -15 112 -30 0 -16 -10 -18 -79 -18 -240 0 -520 124
-714 316 -86 84 -177 211 -177 244 0 39 32 17 80 -53z m-140 -109 c112 -163
293 -320 465 -406 140 -69 342 -122 472 -122 76 0 99 -9 89 -35 -6 -16 -17
-17 -109 -11 -276 17 -515 115 -738 301 -114 95 -288 317 -275 351 11 29 33
11 96 -78z m-173 -60 c137 -217 348 -402 586 -512 163 -76 286 -108 492 -129
109 -11 120 -14 120 -32 0 -19 -7 -20 -97 -18 -297 5 -635 142 -873 354 -139
123 -315 348 -302 384 12 29 35 14 74 -47z"/>
<path d="M2475 2711 c-106 -66 -128 -189 -47 -274 39 -42 78 -59 133 -59 56 1
97 20 133 62 71 85 52 203 -43 267 -44 30 -132 32 -176 4z"/>
</g>
</svg>
