<?xml version="1.0" standalone="no"?>
<!DOCTYPE svg PUBLIC "-//W3C//DTD SVG 20010904//EN"
 "http://www.w3.org/TR/2001/REC-SVG-20010904/DTD/svg10.dtd">
<svg version="1.0" xmlns="http://www.w3.org/2000/svg"
 width="500.000000pt" height="500.000000pt" viewBox="0 0 500.000000 500.000000"
 preserveAspectRatio="xMidYMid meet">
<metadata>
Created by potrace 1.14, written by Peter Selinger 2001-2017
</metadata>
<g transform="translate(0.000000,500.000000) scale(0.100000,-0.100000)"
fill="#000000" stroke="none">
<path d="M0 2500 l0 -2500 2500 0 2500 0 0 2500 0 2500 -2500 0 -2500 0 0
-2500z m2870 1962 c294 -62 565 -180 801 -348 98 -69 287 -249 371 -351 231
-283 380 -622 434 -993 25 -175 15 -512 -19 -672 -136 -621 -524 -1123 -1082
-1397 -205 -101 -421 -165 -648 -192 -145 -17 -466 -7 -592 19 -370 75 -666
219 -942 456 -365 315 -595 735 -669 1226 -24 157 -24 457 0 595 129 750 629
1342 1338 1584 240 82 373 101 678 96 186 -3 255 -8 330 -23z"/>
<path d="M2250 4045 c-740 -127 -1284 -736 -1317 -1475 -33 -743 457 -1409
1172 -1593 147 -38 272 -50 457 -45 232 7 410 50 614 149 503 244 828 714 884
1279 19 197 -6 416 -71 620 -176 548 -655 963 -1224 1060 -137 23 -393 26
-515 5z m495 -151 c272 -45 550 -191 755 -396 107 -107 237 -286 227 -312 -12
-31 -34 -15 -79 57 -95 149 -245 301 -398 401 -190 126 -431 205 -672 222 -85
6 -98 9 -98 25 0 9 6 20 13 22 18 8 149 -2 252 -19z m-4 -174 c251 -51 478
-176 653 -361 92 -97 189 -231 184 -256 -7 -36 -28 -20 -92 70 -215 304 -518
481 -881 517 -55 5 -106 10 -112 10 -7 0 -13 9 -13 20 0 18 7 20 81 20 44 0
125 -9 180 -20z m-65 -165 c226 -39 417 -138 579 -300 82 -82 175 -209 175
-239 0 -37 -38 -14 -78 47 -116 179 -307 329 -510 401 -81 29 -221 56 -287 56
-56 0 -75 8 -75 31 0 16 8 19 54 19 29 0 93 -7 142 -15z m33 -186 c95 -22 221
-78 307 -136 103 -71 269 -262 262 -303 -6 -30 -33 -14 -76 47 -152 218 -374
344 -649 369 -61 6 -73 10 -73 25 0 9 6 20 13 22 20 8 127 -4 216 -24z m14
-182 c144 -46 277 -142 362 -262 48 -67 56 -95 27 -95 -11 0 -34 22 -57 56
-59 86 -159 171 -250 215 -90 43 -179 69 -240 69 -61 0 -85 10 -85 33 0 19 4
20 83 14 45 -3 117 -17 160 -30z m-92 -223 c87 -26 149 -62 211 -125 108 -108
163 -273 138 -419 -41 -241 -241 -410 -484 -410 -138 0 -259 53 -351 152 -179
193 -178 480 2 669 57 60 145 113 222 135 66 18 197 17 262 -2z m-692 -852
c57 -84 155 -172 248 -220 91 -47 156 -66 261 -77 64 -6 72 -9 72 -28 0 -19
-4 -20 -83 -14 -173 12 -326 84 -452 211 -83 85 -122 144 -112 170 11 27 25
18 66 -42z m-179 -41 c0 -6 27 -46 61 -90 100 -134 261 -249 419 -299 72 -24
174 -42 233 -42 25 0 40 -5 44 -16 14 -36 -47 -39 -209 -8 -177 33 -366 147
-495 297 -58 67 -97 133 -89 152 6 16 36 21 36 6z m-115 -144 c54 -84 204
-233 293 -291 146 -94 310 -151 477 -163 91 -7 100 -10 100 -28 0 -19 -6 -20
-92 -17 -248 7 -541 148 -718 344 -61 68 -135 178 -135 200 0 38 36 17 75 -45z
m-169 -59 c119 -189 293 -348 489 -445 150 -75 325 -122 455 -123 81 0 106 -9
97 -34 -8 -19 -77 -21 -194 -5 -344 47 -665 249 -859 540 -43 65 -51 88 -37
102 13 14 23 6 49 -35z m-148 -87 c73 -129 246 -312 390 -412 85 -59 246 -141
343 -173 96 -32 251 -62 362 -71 65 -5 90 -11 94 -22 10 -25 -19 -33 -97 -27
-436 34 -809 236 -1060 574 -72 98 -93 137 -86 156 10 25 32 15 54 -25z"/>
<path d="M2418 2650 c-125 -66 -123 -246 2 -310 116 -59 250 24 250 155 0 130
-138 215 -252 155z"/>
</g>
</svg>
